<svg xmlns="http://www.w3.org/2000/svg" xmlns:xlink="http://www.w3.org/1999/xlink" viewBox="0 0 400 400"><defs><clipPath id="a"><rect width="400" height="400" transform="translate(104.878 219.878)" fill="#fff"/></clipPath></defs><g transform="translate(-104.878 -219.878)" clip-path="url(#a)"><g transform="translate(107.585 271.514)"><path d="M355.058,203.418A162.459,162.459,0,1,0,44.641,270.635H340.6a161.848,161.848,0,0,0,14.459-67.217Z" transform="translate(4.93 -41.082)" fill="#f0f2ff"/><line x2="316.794" transform="translate(37.102 229.349)" stroke-width="3.048" stroke="#1f2d43" stroke-linecap="round" stroke-linejoin="round" fill="none"/><line x2="10.154" transform="translate(18.825 229.349)" stroke-width="3.048" stroke="#1f2d43" stroke-linecap="round" stroke-linejoin="round" fill="none"/><line x2="10.154" transform="translate(362.019 229.349)" stroke-width="3.048" stroke="#1f2d43" stroke-linecap="round" stroke-linejoin="round" fill="none"/><ellipse cx="63.968" cy="6.376" rx="63.968" ry="6.376" transform="translate(134.455 283.976)" fill="#f0f2ff"/><path d="M251.795,239.657V157.981a10.235,10.235,0,0,0-10.235-10.235H103.47a10.235,10.235,0,0,0-10.275,10.235v81.676Z" transform="translate(25.908 -5.596)" fill="#d6daff"/><path d="M113.665,239.708l92.114-92.114H103.43A10.235,10.235,0,0,0,93.2,158.032v81.676Z" transform="translate(25.908 -5.647)" fill="#fff"/><path d="M251.785,216.712V237.02a10.235,10.235,0,0,1-10.235,10.235H103.46A10.235,10.235,0,0,1,93.225,237.02V216.712Z" transform="translate(25.918 17.348)" fill="#fff" stroke="#1f2d43" stroke-linecap="round" stroke-linejoin="round" stroke-width="3.048"/><path d="M159.108,229.51a5.117,5.117,0,1,1-5.117-5.117,5.117,5.117,0,0,1,5.117,5.117Z" transform="translate(44.432 19.903)" fill="#d6daff" stroke="#1f2d43" stroke-linecap="round" stroke-linejoin="round" stroke-width="3.048"/><path d="M184.7,260.222H133.483l2.6-20.47H182.14Z" transform="translate(39.312 25.013)" fill="#fff" stroke="#1f2d43" stroke-linecap="round" stroke-linejoin="round" stroke-width="3.048"/><line x2="81.838" transform="translate(157.484 285.235)" stroke-width="3.048" stroke="#1f2d43" stroke-linecap="round" stroke-linejoin="round" fill="none"/><path d="M251.795,239.657V157.981a10.235,10.235,0,0,0-10.235-10.235H103.47a10.235,10.235,0,0,0-10.275,10.235v81.676Z" transform="translate(25.908 -5.596)" fill="none" stroke="#1f2d43" stroke-linecap="round" stroke-linejoin="round" stroke-width="3.048"/><path d="M191.083,189.818a30.7,30.7,0,1,1-30.7-30.7A30.7,30.7,0,0,1,191.083,189.818Z" transform="translate(38.045 -1.814)" fill="#fff"/><path d="M191.083,189.818a30.7,30.7,0,1,1-30.7-30.7A30.7,30.7,0,0,1,191.083,189.818Z" transform="translate(38.045 -1.814)" fill="none" stroke="#1f2d43" stroke-linecap="round" stroke-linejoin="round" stroke-width="3.048"/><path d="M153.277,203.829a7.636,7.636,0,0,1-5.442-2.234L137.64,191.36a7.676,7.676,0,0,1,10.844-10.844l4.833,4.793,12.469-12.469a7.676,7.676,0,0,1,10.844,10.844l-17.911,17.911A7.6,7.6,0,0,1,153.277,203.829Z" transform="translate(40.029 2.086)" fill="#d6daff"/><path d="M153.277,203.829a7.636,7.636,0,0,1-5.442-2.234L137.64,191.36a7.676,7.676,0,0,1,10.844-10.844l4.833,4.793,12.469-12.469a7.676,7.676,0,0,1,10.844,10.844l-17.911,17.911A7.6,7.6,0,0,1,153.277,203.829Z" transform="translate(40.029 2.086)" fill="none" stroke="#1f2d43" stroke-linecap="round" stroke-linejoin="round" stroke-width="3.048"/><rect width="102.349" height="61.41" rx="3.2" transform="translate(0 90.529) rotate(-15.83)" fill="#fff"/><path d="M99.747,126.42l-5.564-19.7a10.275,10.275,0,0,1-12.672-7.067L22.457,116.389A10.275,10.275,0,0,1,15.39,129.06l5.564,19.7a10.235,10.235,0,0,1,12.672,7.026L92.68,139.052A10.235,10.235,0,0,1,99.747,126.42Z" transform="translate(0.023 -21.595)" fill="#fff"/><path d="M59.441,120.46a10.235,10.235,0,1,1-12.631-7.026A10.235,10.235,0,0,1,59.441,120.46Z" transform="translate(8 -17.138)" fill="#d6daff"/><path d="M59.441,120.46a10.235,10.235,0,1,1-12.631-7.026A10.235,10.235,0,0,1,59.441,120.46Z" transform="translate(8 -17.138)" fill="none" stroke="#1f2d43" stroke-linecap="round" stroke-linejoin="round" stroke-width="3.048"/><path d="M99.747,126.42l-5.564-19.7a10.275,10.275,0,0,1-12.672-7.067L22.457,116.389A10.275,10.275,0,0,1,15.39,129.06l5.564,19.7a10.235,10.235,0,0,1,12.672,7.026L92.68,139.052A10.235,10.235,0,0,1,99.747,126.42Z" transform="translate(0.023 -21.595)" fill="none" stroke="#1f2d43" stroke-linecap="round" stroke-linejoin="round" stroke-width="3.048"/><rect width="102.349" height="61.41" rx="3.2" transform="translate(0 90.529) rotate(-15.83)" stroke-width="3.048" stroke="#1f2d43" stroke-linecap="round" stroke-linejoin="round" fill="none"/><path d="M302.435,171.561l-72.172-20.673a8.489,8.489,0,0,1-5.848-10.519L236.6,97.724a8.489,8.489,0,0,1,10.519-5.848l72.294,20.673a8.529,8.529,0,0,1,5.849,10.519l-12.184,42.645a8.488,8.488,0,0,1-10.641,5.849Z" transform="translate(69.453 -24.294)" fill="#fff"/><rect width="92.114" height="10.235" transform="translate(305.636 75.062) rotate(15.98)" fill="#d6daff"/><line x2="24.612" y2="7.026" transform="translate(304.184 117.253)" stroke-width="3.048" stroke="#1f2d43" stroke-linecap="round" stroke-linejoin="round" fill="none"/><rect width="71.644" height="10.235" transform="translate(309.835 97.538) rotate(15.98)" fill="#fff"/><path d="M302.435,171.561l-72.172-20.673a8.489,8.489,0,0,1-5.848-10.519L236.6,97.724a8.489,8.489,0,0,1,10.519-5.848l72.294,20.673a8.529,8.529,0,0,1,5.849,10.519l-12.184,42.645a8.488,8.488,0,0,1-10.641,5.849Z" transform="translate(69.453 -24.294)" fill="none" stroke="#1f2d43" stroke-linecap="round" stroke-linejoin="round" stroke-width="3.048"/><rect width="92.114" height="10.235" transform="translate(305.636 75.062) rotate(15.98)" stroke-width="3.048" stroke="#1f2d43" stroke-linecap="round" stroke-linejoin="round" fill="none"/><rect width="71.644" height="10.235" transform="translate(309.835 97.538) rotate(15.98)" stroke-width="3.048" stroke="#1f2d43" stroke-linecap="round" stroke-linejoin="round" fill="none"/><circle cx="34.116" cy="34.116" r="34.116" transform="translate(164.307 32.572)" fill="#d6daff"/><path d="M161.231,65.523a34.116,34.116,0,0,0-24.125,58.241l48.25-48.088A34.157,34.157,0,0,0,161.231,65.523Z" transform="translate(37.192 -32.951)" fill="#fff"/><circle cx="34.116" cy="34.116" r="34.116" transform="translate(164.307 32.572)" fill="none" stroke="#1f2d43" stroke-miterlimit="10" stroke-width="3.048"/><line y2="4.265" transform="translate(198.423 83.746)" stroke-width="3.048" stroke="#1f2d43" stroke-linecap="round" stroke-linejoin="round" fill="none"/><line y2="4.265" transform="translate(198.423 45.365)" stroke-width="3.048" stroke="#1f2d43" stroke-linecap="round" stroke-linejoin="round" fill="none"/><path d="M146.283,103.91a8.529,8.529,0,1,0,8.529-8.529,8.529,8.529,0,1,1,8.529-8.529" transform="translate(43.57 -28.693)" fill="none" stroke="#1f2d43" stroke-linecap="round" stroke-linejoin="round" stroke-width="3.048"/></g></g></svg>