<svg xmlns="http://www.w3.org/2000/svg" xmlns:xlink="http://www.w3.org/1999/xlink" x="0px" y="0px" viewBox="0 0 480 480" xml:space="preserve"><path style="fill:#7D8D9C;" d="M160,8h176c17.673,0,32,14.327,32,32v400c0,17.673-14.327,32-32,32H160c-17.673,0-32-14.327-32-32V40C128,22.327,142.327,8,160,8z"/><path style="fill:#87CEE9;" d="M128,80h240v328H128V80z"/><path style="fill:#AABECE;" d="M192,40h112v16H192V40z"/><path style="fill:#AABECE;" d="M232,432h32v16h-32V432z"/><path style="fill:#E9686A;" d="M152,104h32v16h-32V104z"/><path style="fill:#E9686A;" d="M200,104h32v16h-32V104z"/><path style="fill:#E9686A;" d="M264,136h16v16h-16V136z"/><path style="fill:#E9686A;" d="M296,120h16v32h-16V120z"/><path style="fill:#E9686A;" d="M328,104h16v48h-16V104z"/><path style="fill:#FCF05A;" d="M208,184h256v176H208V184z"/><path style="fill:#FDBD40;" d="M208,184l128,96l128-96H208z"/><path style="fill:#394D5C;" d="M184,208H16c-4.418,0-8-3.582-8-8s3.582-8,8-8h168c4.418,0,8,3.582,8,8S188.418,208,184,208z"/><path style="fill:#394D5C;" d="M184,240H56c-4.418,0-8-3.582-8-8s3.582-8,8-8h128c4.418,0,8,3.582,8,8S188.418,240,184,240z"/><path style="fill:#394D5C;" d="M208,352h-32c-4.418,0-8-3.582-8-8s3.582-8,8-8h32c4.418,0,8,3.582,8,8S212.418,352,208,352z"/><path style="fill:#394D5C;" d="M208,320h-48c-4.418,0-8-3.582-8-8s3.582-8,8-8h48c4.418,0,8,3.582,8,8S212.418,320,208,320z"/><path d="M192,40h112v16H192V40z"/><path d="M232,432h32v16h-32V432z"/><path d="M152,104h32v16h-32V104z"/><path d="M200,104h32v16h-32V104z"/><path d="M264,136h16v16h-16V136z"/><path d="M296,120h16v32h-16V120z"/><path d="M328,104h16v48h-16V104z"/><path d="M16,208h104v16H56c-4.418,0-8,3.582-8,8s3.582,8,8,8h64v200c0.026,22.08,17.92,39.974,40,40h176c22.08-0.026,39.974-17.92,40-40v-72h88c4.418,0,8-3.582,8-8V184c0.002-0.851-0.136-1.697-0.408-2.504c-0.045-0.105-0.099-0.207-0.16-0.304c-0.126-0.296-0.273-0.582-0.44-0.856c-0.282-0.576-0.637-1.114-1.056-1.6c-0.218-0.243-0.45-0.473-0.696-0.688c-0.486-0.424-1.023-0.784-1.6-1.072c-0.257-0.155-0.524-0.291-0.8-0.408c-0.903-0.364-1.866-0.556-2.84-0.568h-88V40c-0.026-22.08-17.92-39.974-40-40H160c-22.08,0.026-39.974,17.92-40,40v152H16c-4.418,0-8,3.582-8,8S11.582,208,16,208L16,208z M360,440c0,13.255-10.745,24-24,24H160c-13.255,0-24-10.745-24-24v-24h224V440zM216,352V200l115.2,86.4c2.844,2.133,6.756,2.133,9.6,0L456,200v152H216z M336,270l-104-78h208L336,270z M136,40c0-13.255,10.745-24,24-24h176c13.255,0,24,10.745,24,24v32H136V40z M136,88h224v88H208c-0.972,0.015-1.932,0.21-2.832,0.576c-0.276,0.117-0.543,0.253-0.8,0.408c-0.577,0.288-1.114,0.648-1.6,1.072c-0.246,0.215-0.478,0.445-0.696,0.688c-0.419,0.486-0.774,1.024-1.056,1.6c-0.165,0.274-0.315,0.557-0.448,0.848c-0.04,0.112-0.12,0.2-0.152,0.312c-0.27,0.805-0.411,1.647-0.416,2.496v120h-40c-4.418,0-8,3.582-8,8s3.582,8,8,8h40v16h-24c-4.418,0-8,3.582-8,8s3.582,8,8,8h24v8c0,4.418,3.582,8,8,8h152v32H136V240h48c4.418,0,8-3.582,8-8s-3.582-8-8-8h-48v-16h48c4.418,0,8-3.582,8-8s-3.582-8-8-8h-48V88z"/></svg>