<svg xmlns="http://www.w3.org/2000/svg" xmlns:xlink="http://www.w3.org/1999/xlink" width="150" height="150" viewBox="0 0 150 150"><defs><clipPath id="a"><rect width="150" height="150" transform="translate(599.774 156.035)" fill="#fff" stroke="#707070" stroke-width="1"/></clipPath></defs><g transform="translate(-599.774 -156.035)" clip-path="url(#a)"><g transform="translate(599.775 156.035)"><path d="M138.653,43.7,112.5,17.5v105h35V64.978A30,30,0,0,0,138.653,43.7Z" fill="#ffb782"/><path d="M22.94,103.368,3.17,52.043A10,10,0,0,1,8.908,39.118L102.225,3.173A10,10,0,0,1,115.15,8.91l19.77,51.325a10,10,0,0,1-5.737,12.925L35.868,109.105A10,10,0,0,1,22.94,103.368Z" fill="#eb5c6c"/><path d="M122.275,27.4,10.385,70.77l7.45,19.34,111.9-43.35Z" fill="#bc3c4a"/><path d="M2.5,67.5v-55a10,10,0,0,1,10-10h100a10,10,0,0,1,10,10v55a10,10,0,0,1-10,10H12.5A10,10,0,0,1,2.5,67.5Z" fill="#3d567a"/><path d="M112.5,2.5H101.875l-75,75H112.5a10,10,0,0,0,10-10v-55A10,10,0,0,0,112.5,2.5Z" fill="#324868"/><rect width="10" height="5" transform="translate(12.5 42.5)" fill="#5eb3d1"/><rect width="10" height="5" transform="translate(12.5 57.5)" fill="#5eb3d1"/><rect width="10" height="5" transform="translate(57.5 57.5)" fill="#5eb3d1"/><rect width="10" height="5" transform="translate(27.5 42.5)" fill="#5eb3d1"/><rect width="10" height="5" transform="translate(42.5 42.5)" fill="#5eb3d1"/><rect width="10" height="5" transform="translate(57.5 42.5)" fill="#5eb3d1"/><rect width="5" height="7.5" transform="translate(105 12.5)" fill="#5eb3d1"/><rect width="5" height="7.5" transform="translate(95 12.5)" fill="#5eb3d1"/><rect width="5" height="7.5" transform="translate(85 12.5)" fill="#5eb3d1"/><rect width="5" height="7.5" transform="translate(75 12.5)" fill="#5eb3d1"/><rect width="45" height="25" transform="translate(102.5 122.5)" fill="#303030"/><path d="M95.162,47.663A10.838,10.838,0,0,0,79.512,62.65L100,85a33.716,33.716,0,0,0,.682,34.593L102.5,122.5H135v-35Z" fill="#ffb782"/><path d="M12.5,28.5v-12a4,4,0,0,1,4-4h12a4,4,0,0,1,4,4v12a4,4,0,0,1-4,4h-12A4,4,0,0,1,12.5,28.5Z" fill="#fdb62f"/><rect width="7.5" height="5" transform="translate(12.5 20)" fill="#fd7b2f"/><rect width="7.5" height="5" transform="translate(25 20)" fill="#fd7b2f"/><path d="M132.5,87.5a2.493,2.493,0,0,1-1.768-.732l-10-10a2.5,2.5,0,0,1,3.535-3.535l10,10A2.5,2.5,0,0,1,132.5,87.5Z" fill="#f2a46f"/><path d="M125,26.485V12.5A12.514,12.514,0,0,0,112.5,0H12.5A12.514,12.514,0,0,0,0,12.5v55A12.473,12.473,0,0,0,11.21,79.87l9.4,24.4a12.5,12.5,0,0,0,16.157,7.17L95.45,88.83a36.131,36.131,0,0,0,3.115,32.087l1.435,2.3V147.5a2.5,2.5,0,0,0,2.5,2.5h45a2.5,2.5,0,0,0,2.5-2.5V64.978a32.711,32.711,0,0,0-9.578-23.043Zm0,14.95,7.588,19.7a7.5,7.5,0,0,1-4.305,9.692L123.945,72.5a12.467,12.467,0,0,0,1.055-5V41.435ZM5,67.5v-55A7.5,7.5,0,0,1,12.5,5h100a7.5,7.5,0,0,1,7.5,7.5V28.39h-.022l.022.058V67.5a7.529,7.529,0,0,1-.17,1.3l-22.9-22.9A13.338,13.338,0,0,0,77.68,64.338L87.443,75H12.5A7.5,7.5,0,0,1,5,67.5ZM37.028,80,19.25,86.845,16.62,80Zm-2.06,26.77a7.5,7.5,0,0,1-9.695-4.3h0L21.055,91.5,50.9,80v-.015H92.025l3.25,3.543ZM145,145H105V125h40Zm0-25H103.887l-1.085-1.733a31.177,31.177,0,0,1-.633-32.018,2.5,2.5,0,0,0-.327-2.93L81.355,60.97a8.337,8.337,0,0,1,12.04-11.53l39.837,39.828,3.535-3.535-9.25-9.25,2.565-1a12.5,12.5,0,0,0,7.167-16.15L128.787,37.36l8.1,8.115A27.682,27.682,0,0,1,145,64.977V120Z" fill="#1d1d1d"/><path d="M28.5,35A6.5,6.5,0,0,0,35,28.5h0v-12A6.5,6.5,0,0,0,28.5,10h-12A6.5,6.5,0,0,0,10,16.5h0v12A6.5,6.5,0,0,0,16.5,35h12ZM15,28.5V25h5V20H15V16.5A1.5,1.5,0,0,1,16.5,15h12A1.5,1.5,0,0,1,30,16.5h0V20H25v5h5v3.5A1.5,1.5,0,0,1,28.5,30h-12A1.5,1.5,0,0,1,15,28.5Z" fill="#1d1d1d"/><rect width="10" height="5" transform="translate(12.5 42.5)" fill="#1d1d1d"/><rect width="10" height="5" transform="translate(12.5 57.5)" fill="#1d1d1d"/><rect width="10" height="5" transform="translate(57.5 57.5)" fill="#1d1d1d"/><rect width="10" height="5" transform="translate(27.5 42.5)" fill="#1d1d1d"/><rect width="10" height="5" transform="translate(42.5 42.5)" fill="#1d1d1d"/><rect width="10" height="5" transform="translate(57.5 42.5)" fill="#1d1d1d"/><rect width="5" height="7.5" transform="translate(105 12.5)" fill="#1d1d1d"/><rect width="5" height="7.5" transform="translate(95 12.5)" fill="#1d1d1d"/><rect width="5" height="7.5" transform="translate(85 12.5)" fill="#1d1d1d"/><rect width="5" height="7.5" transform="translate(75 12.5)" fill="#1d1d1d"/><rect width="5" height="5" transform="translate(110 130)" fill="#1d1d1d"/></g></g></svg>