<svg xmlns="http://www.w3.org/2000/svg" viewBox="0 0 25 25"><g transform="translate(-1005 -213)"><circle cx="12.5" cy="12.5" r="12.5" transform="translate(1005 213)" fill="#1f2d43"/><g transform="translate(1010 217.998)"><path d="M11.118,81.093a.351.351,0,0,0-.482,0l-6.484,6.49a.341.341,0,0,0,.089.546l.532.267v.9l-1.631.467L1.5,88.111l.466-1.632h.9l.266.533a.341.341,0,0,0,.25.184.342.342,0,0,0,.3-.1l6.484-6.49a.341.341,0,0,0,0-.482L8.9,78.873a.34.34,0,0,0-.241-.1h0a.341.341,0,0,0-.241.1L1.462,85.9s0,.009-.006.012a.334.334,0,0,0-.079.134L.784,88.117l-.772,2.7a.341.341,0,0,0,.328.435.347.347,0,0,0,.094-.013l2.7-.772,2.071-.592c.006,0,.011-.007.017-.009a.629.629,0,0,0,.115-.068s.01-.005.014-.01l7.017-6.961a.341.341,0,0,0,0-.483Z" transform="translate(0 -76.253)" fill="#fcfcfc"/><path d="M295.627,2.436,293.581.389a1.394,1.394,0,0,0-1.929,0L290.4,1.651a.341.341,0,0,0,0,.481l3.48,3.483a.341.341,0,0,0,.481,0l1.261-1.251a1.365,1.365,0,0,0,0-1.93Z" transform="translate(-281.027 0)" fill="#fcfcfc"/></g></g></svg>