<svg xmlns="http://www.w3.org/2000/svg" xmlns:xlink="http://www.w3.org/1999/xlink" width="150" height="150" viewBox="0 0 150 150"><defs><clipPath id="a"><rect width="150" height="150" transform="translate(599.774 156.035)" fill="#fff" stroke="#707070" stroke-width="1"/></clipPath></defs><g transform="translate(-599.774 -156.035)" clip-path="url(#a)"><g transform="translate(599.774 156.035)"><path d="M121.875,49.8h-5.859a23.23,23.23,0,0,0-13.989,4.731,47.968,47.968,0,0,0-8.947-6.047H56.921a47.968,47.968,0,0,0-8.947,6.047A23.23,23.23,0,0,0,33.984,49.8H28.125v5.859A23.288,23.288,0,0,0,34.5,71.643,55.02,55.02,0,0,0,28.125,96.68c0,10.717,3.6,21.337,9.659,28.049,5.095,5.646,7.919,14.736,7.919,22.342H63.281v-7a60.82,60.82,0,0,0,23.438,0v7H104.3c0-7.6,2.815-16.687,7.91-22.333,6.059-6.715,9.668-17.338,9.668-28.058A55.02,55.02,0,0,0,115.5,71.643a23.289,23.289,0,0,0,6.375-15.979Z" fill="#d84354"/><circle cx="26.367" cy="26.367" r="26.367" transform="translate(48.633 2.93)" fill="#ffda8f"/><ellipse cx="17.578" cy="11.719" rx="17.578" ry="11.719" transform="translate(57.422 90.82)" fill="#fce8d0"/><circle cx="2.93" cy="2.93" r="2.93" transform="translate(83.789 73.242)" fill="#1d1d1d"/><circle cx="2.93" cy="2.93" r="2.93" transform="translate(60.352 73.242)" fill="#1d1d1d"/><path d="M74.687,32.227c.029.012,3.243-.086,3.243,2.93a2.93,2.93,0,0,1-5.275,1.756,2.93,2.93,0,0,0-4.685,3.519,8.829,8.829,0,0,0,4.1,3V45.41a2.93,2.93,0,0,0,5.859,0V43.441a8.8,8.8,0,0,0,5.859-8.285c0-5.322-4.7-8.789-8.062-8.789-.029-.011-3.656.335-3.656-2.93a2.93,2.93,0,0,1,5.275-1.756,2.93,2.93,0,1,0,4.685-3.519,8.829,8.829,0,0,0-4.1-3V13.184a2.93,2.93,0,0,0-5.859,0v1.969a8.792,8.792,0,0,0,2.616,17.074Z" fill="#1d1d1d"/><path d="M54.492,102.539c0,8.214,9.008,14.648,20.508,14.648s20.508-6.434,20.508-14.648S86.5,87.891,75,87.891,54.492,94.325,54.492,102.539ZM75,93.75c7.94,0,14.648,4.025,14.648,8.789S82.94,111.328,75,111.328s-14.648-4.025-14.648-8.789S67.06,93.75,75,93.75Z" fill="#1d1d1d"/><circle cx="2.93" cy="2.93" r="2.93" transform="translate(108.984 121.875)" fill="#1d1d1d"/><path d="M35.609,126.691c4.285,4.748,7.164,12.938,7.164,20.379A2.93,2.93,0,0,0,45.7,150H63.281a2.93,2.93,0,0,0,2.93-2.93v-3.544a63.206,63.206,0,0,0,17.578,0v3.544a2.93,2.93,0,0,0,2.93,2.93H104.3a2.93,2.93,0,0,0,2.93-2.93,34.24,34.24,0,0,1,1.483-9.692,2.93,2.93,0,1,0-5.612-1.684,41.317,41.317,0,0,0-1.608,8.446H89.648v-4.069a2.931,2.931,0,0,0-3.487-2.876,57.886,57.886,0,0,1-22.324,0,2.931,2.931,0,0,0-3.487,2.876v4.069H48.514c-.644-8.028-3.859-16.172-8.554-21.374-5.493-6.088-8.9-16.084-8.9-26.087A51.994,51.994,0,0,1,37.1,72.989a2.93,2.93,0,0,0-.464-3.35,20.4,20.4,0,0,1-5.583-13.975v-2.93h2.93a20.291,20.291,0,0,1,12.233,4.146,2.929,2.929,0,0,0,3.653-.111,45.934,45.934,0,0,1,6.675-4.728,29.266,29.266,0,0,0,36.909,0,45.89,45.89,0,0,1,6.675,4.728,2.93,2.93,0,0,0,3.653.111,20.291,20.291,0,0,1,12.233-4.146h2.93v2.93a20.4,20.4,0,0,1-5.583,13.975,2.93,2.93,0,0,0-.464,3.35,52,52,0,0,1,6.047,23.691,45.012,45.012,0,0,1-2.865,15.855,2.93,2.93,0,1,0,5.476,2.084A50.93,50.93,0,0,0,124.8,96.68a57.391,57.391,0,0,0-5.812-24.594A26.166,26.166,0,0,0,124.8,55.664V49.8a2.93,2.93,0,0,0-2.93-2.93h-5.859a25.941,25.941,0,0,0-13.838,4.007,51.6,51.6,0,0,0-4.448-3.108,29.3,29.3,0,1,0-45.459,0,51.6,51.6,0,0,0-4.448,3.108,25.941,25.941,0,0,0-13.838-4.007H28.125A2.93,2.93,0,0,0,25.2,49.8v5.859a26.166,26.166,0,0,0,5.812,16.421A57.39,57.39,0,0,0,25.2,96.68c0,11.565,3.893,22.784,10.414,30.012ZM75,5.859A23.438,23.438,0,1,1,51.563,29.3,23.464,23.464,0,0,1,75,5.859Z" fill="#1d1d1d"/></g></g></svg>