<svg xmlns="http://www.w3.org/2000/svg" xmlns:xlink="http://www.w3.org/1999/xlink" width="150" height="150" viewBox="0 0 150 150"><defs><clipPath id="a"><rect width="150" height="150" transform="translate(65 789)" fill="#fff" stroke="#707070" stroke-width="1"/></clipPath></defs><g transform="translate(-65 -789)" clip-path="url(#a)"><g transform="translate(67.5 789)"><path d="M103.067,5.817h55a10,10,0,0,1,10,10v125a10,10,0,0,1-10,10h-55a10,10,0,0,1-10-10v-125A10,10,0,0,1,103.067,5.817Z" transform="translate(-55.567 -3.317)" fill="#fff"/><path d="M93.067,58.167h75v102.5h-75Z" transform="translate(-55.567 -33.167)" fill="#324868"/><path d="M151.233,133.783h80v55h-80Z" transform="translate(-88.733 -76.283)" fill="#e8606f"/><path d="M151.233,133.783l40,30,40-30Z" transform="translate(-88.733 -76.283)" fill="#bc3c4a"/><path d="M139.6,29.083h35v5h-35Z" transform="translate(-82.1 -16.583)" fill="#1d1d1d"/><path d="M168.683,314.1h10v5h-10Z" transform="translate(-98.683 -179.1)" fill="#1d1d1d"/><path d="M110.517,75.617h10v5h-10Z" transform="translate(-65.517 -43.117)" fill="#1d1d1d"/><path d="M145.417,75.617h10v5h-10Z" transform="translate(-85.417 -43.117)" fill="#1d1d1d"/><path d="M191.95,98.883h5v5h-5Z" transform="translate(-111.95 -56.383)" fill="#1d1d1d"/><path d="M215.217,87.25h5v10h-5Z" transform="translate(-125.217 -49.75)" fill="#1d1d1d"/><path d="M238.483,75.617h5v15h-5Z" transform="translate(-138.483 -43.117)" fill="#1d1d1d"/><path d="M8.317,65h32.5v5h-20a2.5,2.5,0,1,0,0,5h20v62.5a12.515,12.515,0,0,0,12.5,12.5h55a12.515,12.515,0,0,0,12.5-12.5V115h27.5a2.5,2.5,0,0,0,2.5-2.5v-55a2.432,2.432,0,0,0-.127-.782.688.688,0,0,0-.05-.1,2.078,2.078,0,0,0-.137-.268,2.346,2.346,0,0,0-.33-.5,2.524,2.524,0,0,0-.218-.215,2.371,2.371,0,0,0-.5-.335,1.979,1.979,0,0,0-.25-.127,2.454,2.454,0,0,0-.887-.178h-27.5V12.5A12.515,12.515,0,0,0,108.317,0h-55a12.515,12.515,0,0,0-12.5,12.5V60H8.317a2.5,2.5,0,0,0,0,5Zm107.5,72.5a7.5,7.5,0,0,1-7.5,7.5h-55a7.5,7.5,0,0,1-7.5-7.5V130h70Zm-45-27.5V62.5l36,27a2.5,2.5,0,0,0,3,0l36-27V110Zm37.5-25.625L75.817,60h65ZM45.817,12.5a7.5,7.5,0,0,1,7.5-7.5h55a7.5,7.5,0,0,1,7.5,7.5v10h-70Zm0,15h70V55h-47.5a2.449,2.449,0,0,0-.885.18,1.98,1.98,0,0,0-.25.128,2.37,2.37,0,0,0-.5.335,2.52,2.52,0,0,0-.218.215,2.345,2.345,0,0,0-.33.5,2.646,2.646,0,0,0-.14.265c-.012.035-.038.063-.048.1a2.5,2.5,0,0,0-.13.78V95h-12.5a2.5,2.5,0,0,0,0,5h12.5v5h-7.5a2.5,2.5,0,0,0,0,5h7.5v2.5a2.5,2.5,0,0,0,2.5,2.5h47.5v10h-70V75h15a2.5,2.5,0,1,0,0-5h-15V65h15a2.5,2.5,0,1,0,0-5h-15Z" transform="translate(-5.817)" fill="#1d1d1d"/></g></g></svg>